# xmcd
#
# Track frame offsets: 
#        150
#        2992
#        24352
#        44095
#        98992
#        115517
#        152582
#        185405
#        212442
#        234882
#        253192
#        274995
#        298070
#        315887
#        329517
#
# Disc length: 4691 seconds
#
# Revision: 0
# Processed by: cddbd v1.5.2PL0 Copyright (c) Steve Scherf et al.
# Submitted via: ExactAudioCopy v0.95b3
#
DISCID=cb12510f
DTITLE=Various Artist - TSOP - The Monument Live
DYEAR=1992
DGENRE=R&B
TTITLE0=Harold Melvin and The Blue Notes - Introduction
TTITLE1=Harold Melvin and The Blue Notes - The Love I Lost
TTITLE2=Harold Melvin and The Blue Notes - If You Don't Know Me By Now
TTITLE3=Harold Melvin and The Blue Notes - Hope That We Can Be Together 
TTITLE3=Soon
TTITLE4=HN and BN - Billy Paul - Don't Leave Me This Way
TTITLE5=HN and BN - Billy Paul - You Know How To Make Me
TTITLE6=HN and BN - Billy Paul - Wake Up Everybody
TTITLE7=HN and BN - Billy Paul - Me and Mrs. Jones
TTITLE8=The Three Degress Orchestra - TSOP (The Sounf Of Philadelphia)
TTITLE9=The Three Degress - My Simple Heart
TTITLE10=The Three Degress - Gee Baby and Take Good Care Of Yourself and T
TTITLE10=he Runner
TTITLE11=The Three Degress - Woman In Love
TTITLE12=The Three Degress - Dirt Old Man
TTITLE13=The Three Degress - When Will I See You Again
TTITLE14=Ensemble - Love Train
EXTD=
EXTT0=
EXTT1=
EXTT2=
EXTT3=
EXTT4=
EXTT5=
EXTT6=
EXTT7=
EXTT8=
EXTT9=
EXTT10=
EXTT11=
EXTT12=
EXTT13=
EXTT14=
PLAYORDER=
